<svg width="250" height="27" viewBox="0 0 250 27" fill="none" xmlns="http://www.w3.org/2000/svg">
    <path d="M78.6904 0C81.7059 0 84.865 4.30107 84.865 8.88889C84.865 12.6165 83.1419 16.2007 78.116 17.2043L86.1574 26.3799V26.6667H250V0" fill="#06BAF2"/>
    <path d="M120.333 9.31899C119.759 8.45878 118.323 7.59856 116.6 7.59856C114.446 7.59856 113.297 8.45878 113.297 9.7491C113.297 11.1828 114.876 11.4695 116.887 11.7563C120.19 12.1864 123.349 13.0466 123.349 16.7742C123.349 20.3584 120.19 21.7921 116.743 21.7921C113.441 21.7921 110.999 20.7885 109.851 17.9211L112.292 16.6308C113.01 18.3512 114.876 19.2115 116.743 19.2115C118.61 19.2115 120.333 18.4946 120.333 16.7742C120.333 15.3405 118.754 14.6237 116.6 14.4803C113.297 14.0502 110.425 13.19 110.425 9.7491C110.425 6.45161 113.584 5.16129 116.6 5.16129C119.041 5.16129 121.625 5.87813 122.774 8.31541L120.333 9.31899Z" fill="white"/>
    <path d="M132.97 12.043L137.134 5.44802H140.724V5.59139L134.406 14.767V21.362H131.39V14.767L125.359 5.59139V5.44802H128.949L132.97 12.043Z" fill="white"/>
    <path d="M152.929 9.31899C152.355 8.45878 150.919 7.59856 149.196 7.59856C147.042 7.59856 145.893 8.45878 145.893 9.7491C145.893 11.1828 147.473 11.4695 149.483 11.7563C152.786 12.1864 155.945 13.0466 155.945 16.7742C155.945 20.3584 152.786 21.7921 149.339 21.7921C146.037 21.7921 143.596 20.7885 142.447 17.9211L144.888 16.6308C145.606 18.3512 147.473 19.2115 149.339 19.2115C151.206 19.2115 152.929 18.4946 152.929 16.7742C152.929 15.3405 151.35 14.6237 149.196 14.4803C145.893 14.0502 143.021 13.19 143.021 9.7491C143.021 6.45161 146.18 5.16129 149.196 5.16129C151.637 5.16129 154.222 5.87813 155.37 8.31541L152.929 9.31899Z" fill="white"/>
    <path d="M163.699 8.17203H158.673V5.44802C163.268 5.44802 167.145 5.44802 171.74 5.44802V8.17203H166.715V21.362H163.699V8.17203Z" fill="white"/>
    <path d="M205.055 9.89247L199.885 16.7742H199.311L194.285 9.89247V21.362H191.269V5.44802H194.716L199.742 12.3297L204.767 5.44802H208.214V21.362H205.198V9.89247H205.055Z" fill="white"/>
    <path d="M222.43 9.319C221.855 8.45879 220.419 7.59857 218.696 7.59857C216.542 7.59857 215.393 8.45879 215.393 9.74911C215.393 11.1828 216.973 11.4695 218.983 11.7563C222.286 12.1864 225.445 13.0466 225.445 16.7742C225.445 20.3584 222.286 21.7921 218.84 21.7921C215.537 21.7921 213.096 20.7885 211.947 17.9212L214.388 16.6308C215.106 18.3513 216.973 19.2115 218.84 19.2115C220.706 19.2115 222.43 18.4946 222.43 16.7742C222.43 15.3405 220.85 14.6237 218.696 14.4803C215.393 13.9068 212.521 13.0466 212.521 9.46237C212.521 6.16488 215.681 4.87456 218.696 4.87456C221.137 4.87456 223.722 5.5914 224.871 8.02868L222.43 9.319Z" fill="white"/>
    <path d="M186.818 21.362H179.925C176.766 21.362 175.617 20.215 175.617 17.3477V5.44802H178.633V17.3477C178.633 18.0645 178.92 18.638 179.925 18.638H186.818V21.362Z" fill="white"/>
    <path d="M186.674 5.44802H179.638V8.17203H186.674V5.44802Z" fill="white"/>
    <path d="M183.802 12.043H179.638V14.767H183.802V12.043Z" fill="white"/>
    <path d="M21.8265 7.74193C21.8265 9.7491 20.8214 11.7563 18.3802 12.9032C21.5394 13.9068 22.6881 17.2043 22.6881 18.7814C22.6881 24.6595 18.2367 26.6667 12.6364 26.6667C8.32855 26.6667 4.16428 26.6667 0 26.6667V0C4.16428 0 8.47215 0 12.6364 0C17.9495 0 21.8265 2.29391 21.8265 7.74193ZM5.02585 10.7527H12.78C15.9391 10.7527 16.9443 9.46237 16.9443 7.8853C16.9443 6.59498 15.9391 4.58781 12.78 4.58781H5.02585V10.7527ZM5.02585 21.9355H12.78C14.7904 21.9355 17.8059 21.2186 17.8059 18.7814C17.8059 16.3441 14.934 15.0538 12.78 15.0538H5.02585V21.9355Z" fill="#2A2A2A"/>
    <path d="M29.2935 26.6667V0H48.5353V4.87455H34.3194V12.1864H47.6738V16.7742H34.3194V26.6667H29.2935Z" fill="#2A2A2A"/>
    <path d="M78.4032 26.6667H72.3722L64.618 17.7778H59.7357V26.6667H54.7099V0C59.0178 0 63.182 0 67.4899 0C73.8081 0 77.1108 4.30107 77.1108 8.88889C77.1108 12.6165 75.3877 16.2007 70.3618 17.2043L78.4032 26.3799V26.6667ZM59.7357 4.73118V13.3333H67.3463C70.5054 13.3333 71.9414 11.1828 71.9414 9.03226C71.9414 6.88172 70.5054 4.73118 67.3463 4.73118H59.7357Z" fill="#2A2A2A"/>
</svg>
